<?xml version="1.0" encoding="utf-8"?>
<!-- Generator: Adobe Illustrator 19.1.1, SVG Export Plug-In . SVG Version: 6.00 Build 0)  -->
<svg version="1.1" id="github" xmlns="http://www.w3.org/2000/svg" xmlns:xlink="http://www.w3.org/1999/xlink" x="0px" y="0px"
	 viewBox="-1367 376.4 100 100" style="enable-background:new -1367 376.4 100 100;" xml:space="preserve">
<style type="text/css">
	.st0{fill:#226764;}
	.st1{fill:#F7F7F7;}
</style>
<path class="st0" d="M-1317,378.4c26.5,0,48,21.5,48,48c0,26.5-21.5,48-48,48s-48-21.5-48-48C-1365,399.9-1343.5,378.4-1317,378.4z"
	/>
<path class="st1" d="M-1317,401.9c-13.5,0-24.5,11-24.5,24.5c0,13.5,11,24.5,24.5,24.5s24.5-11,24.5-24.5
	C-1292.5,412.9-1303.5,401.9-1317,401.9z M-1302.5,440.9c-1.9,1.9-4.1,3.4-6.5,4.4c-0.6,0.3-1.3,0.5-1.9,0.7v-3.7
	c0-1.9-0.7-3.3-2-4.3c0.8-0.1,1.6-0.2,2.3-0.3s1.4-0.4,2.2-0.6c0.8-0.3,1.5-0.6,2.1-1c0.6-0.4,1.2-0.9,1.8-1.5c0.6-0.6,1-1.3,1.4-2
	c0.4-0.8,0.7-1.7,0.9-2.7c0.2-1.1,0.3-2.2,0.3-3.5c0-2.5-0.8-4.6-2.4-6.3c0.7-1.9,0.7-4-0.2-6.2l-0.6-0.1c-0.4,0-1.2,0.1-2.2,0.5
	c-1.1,0.4-2.3,1.1-3.6,2c-1.9-0.5-3.9-0.8-5.9-0.8c-2.1,0-4,0.3-5.9,0.8c-0.8-0.6-1.6-1-2.4-1.4c-0.8-0.4-1.4-0.6-1.8-0.8
	c-0.5-0.1-0.9-0.2-1.3-0.3c-0.4,0-0.6,0-0.8,0c-0.1,0-0.2,0-0.2,0c-0.9,2.3-1,4.3-0.2,6.2c-1.6,1.7-2.4,3.8-2.4,6.3
	c0,1.3,0.1,2.4,0.3,3.5c0.2,1.1,0.5,2,0.9,2.7c0.4,0.8,0.9,1.4,1.4,2s1.2,1.1,1.8,1.5c0.6,0.4,1.3,0.7,2.1,1
	c0.8,0.3,1.5,0.5,2.2,0.6c0.7,0.1,1.5,0.3,2.3,0.3c-1.3,0.9-2,2.3-2,4.3v3.7c-0.7-0.2-1.4-0.5-2.1-0.8c-2.4-1-4.7-2.5-6.5-4.4
	c-1.9-1.9-3.4-4.1-4.4-6.5c-1.1-2.5-1.6-5.2-1.6-8c0-2.8,0.5-5.5,1.6-8c1-2.4,2.5-4.7,4.4-6.5c1.9-1.9,4.1-3.4,6.5-4.4
	c2.5-1.1,5.2-1.6,8-1.6s5.5,0.5,8,1.6c2.4,1,4.7,2.5,6.5,4.4c1.9,1.9,3.4,4.1,4.4,6.5c1.1,2.5,1.6,5.2,1.6,8c0,2.8-0.5,5.5-1.6,8
	C-1299.1,436.8-1300.6,439-1302.5,440.9L-1302.5,440.9z"/>
</svg>
