<?xml version="1.0" encoding="utf-8"?>
<!-- Generator: Adobe Illustrator 19.1.1, SVG Export Plug-In . SVG Version: 6.00 Build 0)  -->
<svg version="1.1" id="linkedin" xmlns="http://www.w3.org/2000/svg" xmlns:xlink="http://www.w3.org/1999/xlink" x="0px" y="0px"
	 viewBox="-1367 376.4 100 100" style="enable-background:new -1367 376.4 100 100;" xml:space="preserve">
<style type="text/css">
	.st0{fill:#226764;}
	.st1{fill:#F7F7F7;}
</style>
<path class="st0" d="M-1317,378.4c26.5,0,48,21.5,48,48c0,26.5-21.5,48-48,48s-48-21.5-48-48C-1365,399.9-1343.5,378.4-1317,378.4z"
	/>
<path class="st1" d="M-1300.7,401.9h-32.5c-4.5,0-8.2,3.7-8.2,8.2v32.5c0,4.5,3.7,8.2,8.2,8.2h32.5c4.5,0,8.2-3.7,8.2-8.2v-32.5
	C-1292.5,405.6-1296.2,401.9-1300.7,401.9z M-1323.1,441.7h-6.1v-21.4h6.1V441.7z M-1326.2,417.2c-1.7,0-3.1-1.4-3.1-3.1
	c0-1.7,1.4-3.1,3.1-3.1s3.1,1.4,3.1,3.1C-1323.1,415.8-1324.5,417.2-1326.2,417.2z M-1301.7,441.7h-6.1v-12.3c0-1.7-1.4-3.1-3.1-3.1
	s-3.1,1.4-3.1,3.1v12.3h-6.1v-21.4h6.1v3.8c1.3-1.7,3.2-3.8,5.4-3.8c3.8,0,6.9,3.4,6.9,7.7L-1301.7,441.7L-1301.7,441.7z"/>
</svg>
