<?xml version="1.0" encoding="utf-8"?>
<!-- Generator: Adobe Illustrator 19.1.1, SVG Export Plug-In . SVG Version: 6.00 Build 0)  -->
<svg version="1.1" id="twitter" xmlns="http://www.w3.org/2000/svg" xmlns:xlink="http://www.w3.org/1999/xlink" x="0px" y="0px"
	 viewBox="-1367 376.4 100 100" style="enable-background:new -1367 376.4 100 100;" xml:space="preserve">
<style type="text/css">
	.st0{fill:#226764;}
	.st1{fill:#F7F7F7;}
</style>
<path class="st0" d="M-1317,378.4c26.5,0,48,21.5,48,48c0,26.5-21.5,48-48,48s-48-21.5-48-48C-1365,399.9-1343.5,378.4-1317,378.4z"
	/>
<path class="st1" d="M-1292.5,411.1c-1.8,0.8-3.7,1.3-5.8,1.6c2.1-1.3,3.7-3.2,4.4-5.6c-1.9,1.2-4.1,2-6.4,2.5
	c-1.8-2-4.4-3.2-7.3-3.2c-5.6,0-10.1,4.5-10.1,10.1c0,0.8,0.1,1.6,0.3,2.3c-8.4-0.4-15.8-4.4-20.7-10.6c-0.9,1.5-1.4,3.2-1.4,5.1
	c0,3.5,1.8,6.6,4.5,8.4c-1.6-0.1-3.2-0.5-4.6-1.3c0,0,0,0.1,0,0.1c0,4.9,3.5,9,8.1,9.9c-0.8,0.2-1.7,0.4-2.6,0.4
	c-0.6,0-1.3-0.1-1.9-0.2c1.3,4,5,6.9,9.4,7c-3.4,2.7-7.8,4.3-12.5,4.3c-0.8,0-1.6,0-2.4-0.1c4.4,2.9,9.7,4.5,15.4,4.5
	c18.5,0,28.6-15.4,28.6-28.8c0-0.4,0-0.9,0-1.3C-1295.6,414.9-1293.8,413.1-1292.5,411.1z"/>
</svg>
